<svg width="23" height="21" viewBox="0 0 23 21" fill="none" xmlns="http://www.w3.org/2000/svg">
<path d="M7.41036 13.5763H7.41141C7.41229 13.5763 7.41316 13.5762 7.41404 13.5762H19.6309C19.9316 13.5762 20.1961 13.394 20.2787 13.13L22.974 4.51669C23.0321 4.33099 22.9914 4.13136 22.8642 3.97723C22.7368 3.8231 22.5376 3.73242 22.3262 3.73242H5.85634L5.37466 1.75326C5.30605 1.47176 5.03265 1.27148 4.7168 1.27148H0.673828C0.301643 1.27148 0 1.5469 0 1.88672C0 2.22654 0.301643 2.50195 0.673828 2.50195H4.17633C4.26161 2.85267 6.48138 11.9732 6.60913 12.4979C5.89301 12.7821 5.39063 13.4341 5.39063 14.1914C5.39063 15.2091 6.29749 16.0371 7.41211 16.0371H19.6309C20.003 16.0371 20.3047 15.7617 20.3047 15.4219C20.3047 15.0821 20.003 14.8066 19.6309 14.8066H7.41211C7.04063 14.8066 6.73828 14.5306 6.73828 14.1914C6.73828 13.8527 7.03957 13.5771 7.41036 13.5763ZM21.4328 4.96289L19.1225 12.3457H7.95258L6.1557 4.96289H21.4328Z" fill="white"/>
<path d="M6.73828 17.8828C6.73828 18.9005 7.64514 19.7285 8.75977 19.7285C9.87439 19.7285 10.7812 18.9005 10.7812 17.8828C10.7812 16.8651 9.87439 16.0371 8.75977 16.0371C7.64514 16.0371 6.73828 16.8651 6.73828 17.8828ZM8.75977 17.2676C9.13125 17.2676 9.43359 17.5436 9.43359 17.8828C9.43359 18.222 9.13125 18.498 8.75977 18.498C8.38828 18.498 8.08594 18.222 8.08594 17.8828C8.08594 17.5436 8.38828 17.2676 8.75977 17.2676Z" fill="white"/>
<path d="M16.2617 17.8828C16.2617 18.9005 17.1686 19.7285 18.2832 19.7285C19.3978 19.7285 20.3047 18.9005 20.3047 17.8828C20.3047 16.8651 19.3978 16.0371 18.2832 16.0371C17.1686 16.0371 16.2617 16.8651 16.2617 17.8828ZM18.2832 17.2676C18.6547 17.2676 18.957 17.5436 18.957 17.8828C18.957 18.222 18.6547 18.498 18.2832 18.498C17.9117 18.498 17.6094 18.222 17.6094 17.8828C17.6094 17.5436 17.9117 17.2676 18.2832 17.2676Z" fill="white"/>
</svg>
