<svg width="18" height="18" viewBox="0 0 18 18" fill="none" xmlns="http://www.w3.org/2000/svg">
<g clip-path="url(#clip0)">
<path d="M9.49395 13.6555L17.7964 5.33C18.0683 5.05722 18.0679 4.61559 17.795 4.34327C17.5223 4.07116 17.0804 4.07187 16.8083 4.34468L8.99997 12.1746L1.19166 4.3444C0.919552 4.07162 0.477957 4.07092 0.205145 4.34299C0.068388 4.4795 7.62939e-06 4.65834 7.62939e-06 4.83718C7.62939e-06 5.01556 0.0679302 5.1937 0.203737 5.32996L8.50603 13.6555C8.63674 13.7869 8.81463 13.8606 8.99997 13.8606C9.18531 13.8606 9.36299 13.7867 9.49395 13.6555Z" fill="white"/>
</g>
<defs>
<clipPath id="clip0">
<rect width="18" height="18" fill="white" transform="translate(18) rotate(90)"/>
</clipPath>
</defs>
</svg>
