<?xml version="1.0" standalone="no"?>
<!DOCTYPE svg PUBLIC "-//W3C//DTD SVG 20010904//EN"
 "http://www.w3.org/TR/2001/REC-SVG-20010904/DTD/svg10.dtd">
<svg version="1.0" xmlns="http://www.w3.org/2000/svg"
 width="36.000000pt" height="36.000000pt" viewBox="0 0 36.000000 36.000000"
 preserveAspectRatio="xMidYMid meet">

<g transform="translate(0.000000,36.000000) scale(0.100000,-0.100000)"
fill="#000000" stroke="#fff">
<path d="M128 243 c-18 -5 -38 -52 -38 -89 0 -24 36 -52 48 -38 4 4 1 9 -5 11
-7 3 -13 9 -13 13 0 5 13 4 30 -1 21 -8 39 -8 60 0 17 5 30 6 30 1 0 -4 -6
-10 -12 -13 -7 -2 -10 -7 -6 -11 12 -14 48 14 48 38 0 30 -20 86 -30 86 -5 0
-17 3 -27 6 -17 5 -17 5 -1 -8 15 -13 11 -14 -32 -14 -41 0 -46 2 -32 13 17
12 11 14 -20 6z m37 -83 c-5 -8 -11 -8 -17 -2 -6 6 -7 16 -3 22 5 8 11 8 17 2
6 -6 7 -16 3 -22z m50 0 c-5 -8 -11 -8 -17 -2 -6 6 -7 16 -3 22 5 8 11 8 17 2
6 -6 7 -16 3 -22z"/>
</g>
</svg>
