<svg width="18" height="17" viewBox="0 0 18 17" fill="none" xmlns="http://www.w3.org/2000/svg">
<g clip-path="url(#clip0)">
<path d="M1.36948 13.5789L5.13941 10.0011C5.70113 10.8301 6.44451 11.5352 7.31812 12.0683L3.54789 15.6461C2.946 16.2171 1.97012 16.2171 1.36951 15.6461C0.767594 15.076 0.767594 14.1499 1.36948 13.5789Z" fill="black"/>
<path d="M5.02532 6.32802C5.02532 3.09866 7.78445 0.480225 11.1876 0.480225C14.5906 0.480225 17.3499 3.09866 17.3499 6.32802C17.3499 9.55737 14.5906 12.1757 11.1876 12.1757C7.78445 12.1757 5.02532 9.55737 5.02532 6.32802ZM11.1876 10.7137C13.7361 10.7137 15.8092 8.74655 15.8092 6.32805C15.8092 3.90955 13.7361 1.94225 11.1876 1.94225C8.63905 1.94225 6.56577 3.90955 6.56577 6.32805C6.56577 8.74655 8.63905 10.7137 11.1876 10.7137Z" fill="black"/>
<path d="M14.7832 6.328H13.7563C13.7563 4.98451 12.6043 3.89144 11.1886 3.89144V2.91684C13.1704 2.91684 14.7832 4.44731 14.7832 6.328Z" fill="black"/>
</g>
<defs>
<clipPath id="clip0">
<rect width="16.4328" height="15.5941" fill="white" transform="matrix(-1 0 0 1 17.3508 0.480225)"/>
</clipPath>
</defs>
</svg>
