<?xml version="1.0" standalone="no"?>
<!DOCTYPE svg PUBLIC "-//W3C//DTD SVG 20010904//EN"
 "http://www.w3.org/TR/2001/REC-SVG-20010904/DTD/svg10.dtd">
<svg version="1.0" xmlns="http://www.w3.org/2000/svg"
 width="36.000000pt" height="36.000000pt" viewBox="0 0 36.000000 36.000000"
 preserveAspectRatio="xMidYMid meet">

<g transform="translate(0.000000,36.000000) scale(0.100000,-0.100000)"
fill="#000000" stroke="none">
<path d="M173 221 c-46 -19 -83 -39 -83 -43 0 -4 11 -10 24 -14 15 -3 27 -16
30 -30 5 -19 11 -24 26 -19 10 3 28 0 39 -7 11 -7 23 -9 27 -6 10 11 33 142
26 149 -4 3 -44 -10 -89 -30z m15 -51 c-24 -28 -34 -35 -36 -23 -2 9 9 26 25
39 43 35 48 29 11 -16z"/>
</g>
</svg>
