<?xml version="1.0" standalone="no"?>
<!DOCTYPE svg PUBLIC "-//W3C//DTD SVG 20010904//EN"
 "http://www.w3.org/TR/2001/REC-SVG-20010904/DTD/svg10.dtd">
<svg version="1.0" xmlns="http://www.w3.org/2000/svg"
 width="36.000000pt" height="36.000000pt" viewBox="0 0 36.000000 36.000000"
 preserveAspectRatio="xMidYMid meet">

<g transform="translate(0.000000,36.000000) scale(0.100000,-0.100000)"
fill="#000000" stroke="none">
<path d="M102 238 c-16 -16 -16 -100 0 -116 16 -16 140 -16 156 0 7 7 12 33
12 58 0 25 -5 51 -12 58 -16 16 -140 16 -156 0z m98 -58 c0 -5 -9 -14 -20 -20
-18 -10 -20 -8 -20 20 0 28 2 30 20 20 11 -6 20 -15 20 -20z"/>
</g>
</svg>
